# xmcd
#
# Track frame offsets: 
#        150
#        20403
#        34650
#
# Disc length: 609 seconds
#
# Revision: 5
# Processed by: cddbd v1.5.2PL0 Copyright (c) Steve Scherf et al.
# Submitted via: ExactAudioCopyFreeDBPlugin 1.0
#
DISCID=19025f03
DTITLE=ASIAN KUNG-FU GENERATION - ワールドアパート
DYEAR=2006
DGENRE=Rock
TTITLE0=ワールドアパート
TTITLE1=永遠に
TTITLE2=嘘とワンダーランド
EXTD=Awesome as fuck! YEAR: 2006
EXTT0=
EXTT1=
EXTT2=
PLAYORDER=
